<?xml version="1.0" encoding="UTF-8"?>
<svg width="1365px" height="1365px" viewBox="0 0 1365 1365" version="1.1" xmlns="http://www.w3.org/2000/svg">
    <title>f_logo_RGB-Blue_1024</title>
    <g stroke="none" stroke-width="1" fill="none" fill-rule="evenodd">
        <path d="M1365,682.5 C1365,305.7 1059.3,0 682.5,0 C305.7,0 0,305.7 0,682.5 C0,1023.2 249.6,1305.5 576,1357.5 L576,880.5 L402.6,880.5 L402.6,682.5 L576,682.5 L576,532.1 C576,361.2 677.9,266.6 833.8,266.6 C909,266.6 987.8,280 987.8,280 L987.8,448.3 L901.8,448.3 C816.9,448.3 789,500.8 789,554.4 L789,682.5 L980.1,682.5 L949.6,880.5 L789,880.5 L789,1357.5 C1115.4,1305.5 1365,1023.2 1365,682.5" fill="#1877F2" fill-rule="nonzero"></path>
        <path d="M949.6,880.5 L980.1,682.5 L789,682.5 L789,554.4 C789,500.8 816.9,448.3 901.8,448.3 L987.8,448.3 L987.8,280 C987.8,280 909,266.6 833.8,266.6 C677.9,266.6 576,361.2 576,532.1 L576,682.5 L402.6,682.5 L402.6,880.5 L576,880.5 L576,1357.5 C610.5,1362.7 645.2,1365.3 680.3,1365.3 C715.4,1365.3 750.1,1362.7 784.6,1357.5 L789,880.5 L949.6,880.5" fill="#FFFFFF" fill-rule="nonzero"></path>
    </g>
</svg>